<svg xmlns="http://www.w3.org/2000/svg" version="1.0" width="1280.000000pt" height="800.000000pt" viewBox="0 0 1280.000000 869.000000" preserveAspectRatio="xMidYMid meet" transform="matrix(-1, 0, 0, 1, 0, 0)">
<metadata fill="#ffffff">
Created by potrace 1.15, written by Peter Selinger 2001-2017
</metadata>
<g transform="translate(0.000000,869.000000) scale(0.100000,-0.100000)" fill="#ffffff" stroke="none">
<path d="M12655 8665 c-579 -151 -1087 -584 -1375 -1170 -181 -370 -274 -733 -311 -1215 -13 -166 -7 -597 11 -820 70 -880 -12 -1326 -313 -1697 -215 -266 -567 -393 -932 -338 -107 16 -119 20 -144 47 -37 43 -168 144 -286 221 -316 206 -727 366 -1145 446 -224 42 -374 55 -650 56 -450 0 -650 -32 -1555 -249 -307 -73 -573 -127 -755 -152 -165 -22 -544 -30 -708 -15 -303 29 -625 109 -934 232 -57 23 -124 50 -150 60 -27 10 -48 14 -48 9 0 -18 137 -100 284 -170 441 -212 961 -303 1471 -260 276 24 515 68 1037 191 549 128 726 163 998 196 176 20 586 23 765 4 439 -46 843 -159 1230 -345 140 -67 438 -234 443 -248 13 -30 181 -84 308 -99 303 -33 614 86 838 322 239 250 370 588 406 1043 14 184 12 334 -10 726 -30 520 -26 801 16 1110 84 628 335 1174 714 1550 223 222 484 391 828 535 61 26 112 49 112 51 0 10 -62 1 -145 -21z" fill="#ffffff"/>
<path d="M12718 8561 c-181 -263 -320 -661 -372 -1061 -42 -321 -43 -582 -5 -1275 21 -391 25 -865 9 -1040 -36 -392 -116 -692 -266 -994 -294 -593 -802 -985 -1404 -1082 -41 -7 -147 -13 -235 -13 -251 0 -452 41 -713 145 -68 27 -127 48 -129 46 -8 -9 83 -68 177 -116 116 -60 268 -114 404 -143 88 -19 131 -22 331 -22 203 -1 242 2 335 22 800 175 1413 851 1595 1759 42 212 56 362 62 663 5 285 -3 472 -42 995 -21 278 -30 807 -17 977 31 377 111 699 257 1033 72 164 76 175 67 175 -4 0 -28 -31 -54 -69z" fill="#ffffff"/>
<path d="M110 5659 c0 -12 -15 -67 -34 -122 -56 -166 -70 -271 -70 -512 1 -185 4 -227 28 -348 77 -402 261 -752 546 -1037 191 -192 418 -344 639 -427 89 -33 192 -56 203 -45 14 14 -12 35 -120 98 -245 144 -407 269 -578 445 -87 91 -264 311 -264 331 0 8 106 -17 161 -38 64 -25 116 -60 136 -90 42 -65 185 -93 290 -58 56 19 117 14 184 -14 l46 -20 37 -128 c77 -260 126 -504 166 -815 11 -90 25 -177 30 -194 5 -16 13 -48 19 -71 14 -54 71 -109 133 -130 72 -23 198 -16 262 15 57 28 106 96 106 147 0 18 4 54 10 81 5 26 19 120 30 208 36 280 99 578 171 801 l30 93 57 21 c82 31 115 34 168 16 60 -20 173 -21 220 -1 20 8 62 39 94 69 60 55 148 96 250 115 70 14 -137 14 -257 0 -110 -12 -139 -22 -356 -126 -87 -42 -160 -73 -163 -71 -6 7 50 161 106 293 37 88 184 387 209 424 7 11 24 6 87 -28 75 -40 260 -162 386 -253 165 -120 -2 98 -191 250 -53 42 -121 93 -151 111 -30 19 -56 36 -58 37 -6 4 129 207 212 319 108 144 227 286 394 469 l137 150 7 -45 c15 -93 21 -473 9 -584 -44 -409 -187 -776 -422 -1087 -80 -106 -261 -291 -364 -375 -99 -80 -247 -180 -387 -263 -122 -72 -138 -90 -77 -90 90 0 341 109 505 218 572 384 909 1040 881 1716 -3 78 -13 184 -22 236 -21 118 -68 269 -96 304 l-20 26 -42 -21 c-86 -44 -237 -168 -393 -324 -166 -166 -279 -300 -393 -467 -36 -53 -69 -97 -74 -98 -4 0 -54 20 -111 44 -337 144 -724 188 -1056 120 -97 -20 -252 -70 -312 -100 -26 -13 -52 -24 -57 -24 -5 0 -38 42 -75 93 -201 283 -492 581 -702 719 -89 58 -104 63 -104 37z m244 -284 c53 -59 144 -166 201 -237 104 -130 285 -388 285 -406 0 -6 -30 -32 -67 -58 -80 -57 -214 -188 -270 -264 -47 -65 -86 -137 -81 -152 2 -6 48 29 102 78 146 133 376 299 390 282 16 -18 149 -274 193 -370 53 -117 164 -400 159 -406 -2 -1 -72 31 -157 72 -252 122 -261 124 -561 142 l-107 6 -79 156 c-122 245 -193 486 -223 767 -11 107 -6 476 8 570 l6 39 51 -55 c28 -30 96 -104 150 -164z m1606 -580 c121 -20 264 -56 376 -96 135 -48 129 -41 94 -102 -284 -484 -460 -1122 -460 -1663 l0 -156 -22 7 c-48 15 -271 17 -324 2 l-52 -13 -5 225 c-9 374 -75 712 -212 1081 -52 138 -181 412 -252 533 -25 43 -43 80 -40 83 12 12 208 73 283 88 187 38 420 42 614 11z" fill="#ffffff"/>
<path d="M9440 3347 c-101 -51 -158 -93 -250 -186 -130 -130 -218 -285 -270 -476 -17 -59 -24 -119 -27 -230 -6 -179 7 -280 72 -559 63 -274 76 -347 82 -476 17 -357 -167 -696 -538 -992 -111 -88 -147 -113 -296 -202 -131 -78 -145 -92 -82 -82 71 11 246 86 361 155 305 182 539 447 638 720 50 138 63 212 63 366 1 142 -8 219 -45 378 -11 49 -18 90 -16 93 3 2 19 -16 37 -41 48 -67 186 -210 266 -275 344 -281 733 -409 1241 -410 256 0 502 -33 641 -85 145 -55 280 -167 356 -296 87 -147 116 -335 82 -524 -9 -53 -15 -99 -12 -101 3 -3 17 12 31 33 71 103 97 325 57 484 -63 255 -247 453 -508 549 -133 48 -258 69 -483 80 -563 28 -632 37 -840 106 -266 89 -527 252 -735 460 -150 150 -180 192 -198 276 -58 267 -58 428 -2 623 64 219 194 405 397 567 48 39 88 72 88 74 0 13 -55 -1 -110 -29z" fill="#ffffff"/>
<path d="M9530 3270 c-62 -122 -79 -348 -39 -511 61 -246 236 -466 495 -622 151 -91 312 -159 577 -243 439 -140 588 -196 715 -266 406 -226 673 -604 752 -1063 11 -62 22 -178 26 -259 4 -80 11 -146 15 -146 11 0 25 55 40 150 14 94 6 316 -16 428 -57 289 -192 539 -410 757 -214 216 -437 339 -830 462 -532 165 -726 242 -888 352 -320 216 -463 519 -417 890 7 56 10 104 7 107 -3 3 -15 -13 -27 -36z" fill="#ffffff"/>
<path d="M2130 3055 c0 -2 50 -58 112 -122 169 -179 255 -301 403 -573 239 -442 363 -591 632 -767 211 -139 459 -246 1348 -583 303 -114 443 -177 536 -241 264 -178 347 -436 225 -699 -14 -30 -23 -56 -20 -59 10 -10 73 63 98 114 130 267 24 567 -272 767 -118 80 -276 150 -902 403 -635 256 -810 336 -973 444 -212 142 -316 262 -537 620 -195 318 -289 438 -439 565 -98 82 -211 153 -211 131z" fill="#ffffff"/>
<path d="M6908 2255 c-236 -33 -458 -119 -668 -262 -116 -79 -299 -170 -439 -218 -223 -76 -514 -114 -734 -95 -383 33 -692 144 -1024 367 -69 46 -128 81 -132 77 -12 -12 185 -187 288 -255 58 -38 157 -95 221 -126 234 -113 810 -529 1044 -752 226 -217 324 -459 271 -666 -24 -91 -63 -153 -148 -238 -43 -44 -76 -81 -73 -85 10 -9 89 19 136 48 152 97 227 258 218 468 -10 201 -90 362 -277 555 -121 126 -381 325 -584 447 -48 29 -86 55 -84 56 1 2 32 -1 67 -6 450 -65 961 52 1335 305 148 100 332 177 518 217 81 17 136 22 267 22 246 1 404 -36 625 -144 254 -125 449 -315 555 -544 63 -133 75 -191 74 -356 -1 -168 -19 -252 -84 -384 -110 -227 -328 -401 -590 -472 -131 -35 -135 -38 -51 -42 92 -4 206 24 319 78 106 51 161 89 246 169 124 119 210 267 258 441 31 114 33 356 4 465 -128 480 -597 855 -1163 930 -131 18 -265 17 -395 0z" fill="#ffffff"/>
<path d="M3068 1653 c57 -85 72 -117 88 -194 35 -171 -41 -334 -209 -446 -138 -93 -284 -126 -657 -148 -277 -18 -400 -34 -507 -70 -221 -74 -399 -220 -489 -399 -18 -38 -34 -80 -34 -94 0 -23 13 -12 99 79 174 185 330 271 559 310 31 5 184 16 338 24 155 8 315 20 355 26 415 64 678 317 656 629 -6 87 -34 166 -83 233 -38 53 -107 107 -136 107 -16 0 -13 -8 20 -57z" fill="#ffffff"/>
<path d="M3855 1242 c-6 -4 -45 -47 -86 -97 -257 -305 -513 -446 -898 -496 -42 -5 -166 -18 -276 -29 -313 -32 -472 -63 -636 -125 -172 -66 -355 -172 -436 -253 -54 -54 -27 -52 113 8 331 142 504 182 944 220 327 28 426 44 590 95 274 86 532 300 652 540 44 87 60 156 33 137z" fill="#ffffff"/>
</g>
</svg>